<svg xmlns="http://www.w3.org/2000/svg" viewBox="0 0 433.54 512"><path d="M407.72,77.25a50.57,50.57,0,0,0-69.94-12.8,49.55,49.55,0,0,0-12.92,69.3C364.54,186.54,443.4,133.53,407.72,77.25Z" transform="translate(-39.23)" style="fill:#fff"/><path d="M184.73,224c-38.15-45.58-109.45-1.65-84.58,52.62,15.73,33.79,65.49,38.11,86.82,7.12a48.91,48.91,0,0,0-.33-57.27C186,225.65,185.4,224.82,184.73,224Z" transform="translate(-39.23)" style="fill:#fff"/><path d="M394.91,366.37c-55.65-35.49-111.44,40.81-57.85,81.25,22.82,15.71,54.26,10.26,70.24-12.18A49.07,49.07,0,0,0,394.91,366.37Z" transform="translate(-39.23)" style="fill:#fff"/><path d="M152.65,151l1.24.1c1.18.09,2.36.19,3.54.32l1.65.2c1,.13,2.09.27,3.13.43l1.8.29c1,.17,2,.36,3,.56l1.83.37c1,.22,2,.47,3,.72.57.14,1.14.27,1.7.43,1.3.34,2.59.72,3.87,1.11.72.22,1.43.46,2.15.7,1,.34,2,.68,3.06,1.05.73.26,1.45.55,2.18.84s1.56.6,2.33.92l2.3,1,2.16,1,2.3,1.12c.72.36,1.42.73,2.13,1.11s1.49.78,2.22,1.2,1.54.89,2.3,1.34,1.31.76,2,1.17q2.1,1.29,4.15,2.7a104.69,104.69,0,0,1,33.63,37.92c10.95,20.18,20.07,35.6,29.3,47.62h0l.51.65c24.06-30.28,49.17-38.05,108.56-45.91a106.14,106.14,0,0,0,47.74-17.82c113.09-84.23-1.95-247.55-120.26-173.17a104.89,104.89,0,0,0-33.85,37.83c-39.17,71.38-55.22,83.42-133.25,94.2.93-.06,1.86-.08,2.78-.11l1.08-.05Q147.78,150.66,152.65,151ZM337.78,64.45a50.57,50.57,0,0,1,69.94,12.8c35.68,56.28-43.18,109.29-82.86,56.5A49.55,49.55,0,0,1,337.78,64.45Z" transform="translate(-39.23)" style="fill:#fc6719"/><path d="M427,321.31a107.14,107.14,0,0,0-47.74-18.11c-60-8.38-85-16.35-109.14-47.39l-.51-.65h0c-9.23-12-18.35-27.44-29.3-47.62a104.69,104.69,0,0,0-33.63-37.92c-1.37-.94-2.75-1.83-4.15-2.7-.64-.41-1.3-.78-2-1.17s-1.52-.91-2.3-1.34-1.48-.81-2.22-1.2-1.41-.75-2.13-1.11l-2.3-1.12-2.16-1-2.3-1c-.77-.32-1.55-.62-2.33-.92s-1.45-.58-2.18-.84c-1-.37-2-.71-3.06-1.05-.72-.24-1.43-.48-2.15-.7-1.28-.39-2.57-.77-3.87-1.11-.56-.16-1.13-.29-1.7-.43-1-.25-2-.5-3-.72l-1.83-.37c-1-.2-2-.39-3-.56l-1.8-.29c-1-.16-2.08-.3-3.13-.43l-1.65-.2c-1.18-.13-2.36-.23-3.54-.32l-1.24-.1c-3.24-.2-6.49-.26-9.73-.18l-1.08.05a106.62,106.62,0,0,0-83.32,44.49c-47.3,66.39-2.3,157.09,77.27,164.28H136c80.27,11.46,96.23,23.08,135.32,95.15A104.69,104.69,0,0,0,305,492.68C422.39,567.54,540,406.58,427,321.31ZM187,283.76c-21.33,31-71.09,26.67-86.82-7.12-24.87-54.27,46.43-98.2,84.58-52.62.67.8,1.3,1.63,1.91,2.47A48.91,48.91,0,0,1,187,283.76ZM407.3,435.44c-16,22.44-47.42,27.89-70.24,12.18-53.59-40.44,2.2-116.74,57.85-81.25A49.07,49.07,0,0,1,407.3,435.44Z" transform="translate(-39.23)" style="fill:#01b2cc"/></svg>